<svg xmlns="http://www.w3.org/2000/svg" viewBox="0 0 316.42 287.71"><defs><style>.cls-1{fill:#231f20;}</style></defs><g id="Layer_2" data-name="Layer 2"><g id="Layer_2-2" data-name="Layer 2"><path class="cls-1" d="M91.62,41.06c15.67-1.83,35.1-1.44,44.45-16.62,1.21-2,4.23-6.78,1.35-8.62-.5-.32-1,.21-.92.71.12.73.8,2.08,1.76,1.47s-.25-1.81-.84-2.18a.63.63,0,0,0-.94.54c0,.92-1.95.09-2.6.77s-.35,1.59-.15,2.3a7.89,7.89,0,0,0,.83,2.25,18,18,0,0,0,2.13,1.95c5.56,5.5,8.15,13,9.33,20.54a126.76,126.76,0,0,1,1.14,12.76.63.63,0,0,0,1.23.17,8.25,8.25,0,0,0,0-4.62c-.19-.73-1.15-.49-1.23.16a24.58,24.58,0,0,0,0,4.29.63.63,0,0,0,.94.54,13.06,13.06,0,0,0,3.88-3.4,2.11,2.11,0,0,0-1-3.3c-2.55-.7-3.73,4.46-3.82,6.16,0,.6.68.75,1.07.44,17.26-13.66,2.08-38.34-10-49.86a22.37,22.37,0,0,0-7.41-5,23.24,23.24,0,0,0-10.55-1.29.63.63,0,0,0-.54.94A13.63,13.63,0,0,0,124,6.36l.48-1.14c-9.61-3.28-21-7.91-31-3.24C85.89,5.51,81,12.71,77.58,20.06c-.87,1.88-1.67,3.79-2.42,5.72-.36.91-.7,1.81-1,2.72a4,4,0,0,0-.45,2.65c.9,3.57.83,7.32,1.8,10.89a12.68,12.68,0,0,0,2.16,4.52,11.09,11.09,0,0,0,1.86,1.89c1,.74,2.15,1.2,2.81,2.23A12.66,12.66,0,0,0,84,53.15,17.72,17.72,0,0,0,87,55.38a13.73,13.73,0,0,0,2.9,1.55,9.34,9.34,0,0,0,2.53.19c4.11.07,8.19-.68,12.3-.49,4.61.2,8.41,2,10.87,6,.42.68,1.51,0,1.08-.63a13.16,13.16,0,0,0-7.92-6.11c-3.26-.85-6.69-.61-10-.37-1.74.13-3.48.27-5.23.3-.82,0-1.65,0-2.47,0A7.53,7.53,0,0,1,88,54.52a16.07,16.07,0,0,1-3-2.26c-.91-.87-1.24-2-2-2.94a9.7,9.7,0,0,0-2.22-1.55,9.75,9.75,0,0,1-2.2-2.15C76.36,42.74,76.1,39,75.68,35.56c-.09-.74-.19-1.49-.31-2.23a21.87,21.87,0,0,1-.58-2.83,8.62,8.62,0,0,1,.92-2.68c.36-1,.74-1.94,1.13-2.9,3-7.46,7-15.21,13.8-19.88C101-2.08,113.4,2.77,124.1,6.42c.69.24,1.06-.77.48-1.14a12.15,12.15,0,0,1-3.73-3.72l-.54.94a20.51,20.51,0,0,1,16.27,5.14,65.31,65.31,0,0,1,8.76,10c5.25,7.3,10.07,16.49,9.3,25.76a18.56,18.56,0,0,1-7.3,13.13l1.07.44a9.57,9.57,0,0,1,.6-2.51c.2-.58.68-2.24,1.42-2.43.43-.1.77.4.76.78,0,.54-.6,1.09-.95,1.45a18.14,18.14,0,0,1-2.77,2.17l.94.54a24.58,24.58,0,0,1,0-4.29l-1.23.17a6.9,6.9,0,0,1,.05,3.95l1.23.17c-.4-7.41-.87-15-3.35-22a33.11,33.11,0,0,0-5.1-9.47c-.58-.74-1.2-1.45-1.85-2.13s-1.58-1.36-2.26-2.12c-.33-.37-1.46-2.87-1.08-3.16s1.34.11,1.77,0a1.57,1.57,0,0,0,1.19-1.67l-.94.54c.4.25.46.63.84.19s.15-.45.08-.89l-.92.7c1.06.68.37,2.48,0,3.38a23.42,23.42,0,0,1-2.31,4.3,25.07,25.07,0,0,1-7.16,7.24c-6.66,4.39-14.84,5.79-22.62,6.68-4.36.49-8.74.8-13.1,1.31-.79.09-.8,1.34,0,1.25Z"/><path class="cls-1" d="M116.52,63.43c1.64,2.29,2.37,5,3.58,7.54a11.16,11.16,0,0,0,5.06,5.36c4.43,2.19,10.24,1.73,14.61-.39a10.36,10.36,0,0,0,5.1-4.8,6.85,6.85,0,0,0-.82-6.73c-1.67-2.37-4.32-3.65-7-4.49a39,39,0,0,0-9.33-1.79,18.3,18.3,0,0,0-8.93,1.39c-2.68,1.3-1.68,4.82-1.45,7.22a32.74,32.74,0,0,0,1.89,8.86c.48,1.22,1.15,2.31,1.74,3.47s.2,1.92-1,2.28c-.89.26-1.84.37-2.75.55-1.49.3-3,.64-4.5.89a5.66,5.66,0,0,1-3.31-.16A2.29,2.29,0,0,1,108,80.34c.23-1.12,1.55-1.81,2-2.89a9.34,9.34,0,0,0,.12-4.43,7,7,0,0,1,.52-4.13,11.06,11.06,0,0,1,3.1-3.4,9.64,9.64,0,0,1,1.68-1.25c1.26-.57,1.8.38,2.41,1.27A14.13,14.13,0,0,1,119.7,70a31.19,31.19,0,0,1,.94,9.76,5.79,5.79,0,0,1-2.32,4.61,8.52,8.52,0,0,1-4.67,1.1c-3.33,0-7-1.13-10.11.55-2.18,1.17-3.82,3.73-2.91,6.21a.62.62,0,0,0,.6.46,65.94,65.94,0,0,1,14.39-.25,62,62,0,0,1,7.31,1.13c1.54.33,3.38,1,4.65-.3a.65.65,0,0,0,0-.89A33.2,33.2,0,0,0,119.21,87a.62.62,0,0,0-.75,1,20.42,20.42,0,0,1,3.88,6.37l.43-.77a28.56,28.56,0,0,1-13.93-.28c-.66-.18-1.15.85-.48,1.14,3.13,1.34,6.33,2.55,9.58,3.58q2.57.81,5.18,1.49c1.27.33,3,1.07,4.26.53s2.12-2,3-3L133.86,93l7.37-8.53-1-.28a14.51,14.51,0,0,1-.17,7,20.46,20.46,0,0,1-3,5.88,33,33,0,0,0-3.24,5.54c-.83,2-1.45,4.09-2.8,5.82-2.36,3-6,4.7-9.57,5.93-4.12,1.42-8.81,3.2-13.17,2.06a40.25,40.25,0,0,1-7.13-3l-7.68-3.69c-.72-.35-1.35.73-.63,1.08l7.46,3.58a53.46,53.46,0,0,0,6.8,3c4.61,1.48,9.19,0,13.61-1.46,3.71-1.2,7.54-2.75,10.31-5.59a15.44,15.44,0,0,0,3.18-5.25,32.84,32.84,0,0,1,3.47-6.68,24.44,24.44,0,0,0,3.54-6.67,15.86,15.86,0,0,0,.23-7.86.62.62,0,0,0-1-.28L133.94,91l-3.2,3.71a43.07,43.07,0,0,1-3.13,3.61c-.88.82-1.73.6-2.8.34l-2.27-.58c-1.43-.39-2.85-.8-4.27-1.25q-4.72-1.5-9.28-3.46l-.48,1.14a29.9,29.9,0,0,0,14.59.29.63.63,0,0,0,.44-.77,22,22,0,0,0-4.2-6.93l-.76,1a31.53,31.53,0,0,1,8.11,5.18v-.89c-.81.84-2.22.25-3.2,0s-2.16-.45-3.25-.63q-3-.5-6-.72a66.24,66.24,0,0,0-13,.37l.6.46A3.63,3.63,0,0,1,102.91,88a6.68,6.68,0,0,1,4.8-1.67c3,0,6.08.79,9.09,0,6-1.56,5.35-8.14,4.76-13a20.1,20.1,0,0,0-2.31-7.84c-.57-1-1.37-2.29-2.48-2.7s-2.09.33-3,1c-2,1.47-4,3.16-4.79,5.57-.93,2.81,1.11,6.25-.94,8.66-.72.84-1.46,1.57-1.38,2.77a3.63,3.63,0,0,0,1.62,2.62c2.43,1.67,6.16.28,8.76-.24,1.9-.38,5.84-.51,5.45-3.38A10.44,10.44,0,0,0,121,76.65a21.64,21.64,0,0,1-1.71-5A37.43,37.43,0,0,1,118.6,67a24.6,24.6,0,0,1-.35-4.84c.19-1.87,3.26-2.29,4.76-2.53a21,21,0,0,1,5.14-.17,36,36,0,0,1,9.77,2.13c3,1.1,6.18,3.38,6.26,6.87.07,3.24-2.84,5.5-5.53,6.68a17.46,17.46,0,0,1-9.34,1.22,10.18,10.18,0,0,1-7.61-5c-1.57-2.76-2.24-5.94-4.1-8.54-.47-.65-1.55,0-1.08.63Z"/><path class="cls-1" d="M117.92,66.26l.08.08.13-1c.66-.5,2.48.59,3.23.88a14.12,14.12,0,0,0,2.1.64,16.41,16.41,0,0,0,4.13.41,16.71,16.71,0,0,0,7.93-2.22.64.64,0,0,0-.15-1.15,49.77,49.77,0,0,0-10.43-1.68c-2.35-.12-5.26-.34-6.78,1.83-.3.42.11.9.54.94a3.22,3.22,0,0,1,2.64,1.77l.54-.94c-2-.14-4.16-4.21-2.74-5.81a6.27,6.27,0,0,1,3-1.4l3.69-1.1c2.44-.73,4.87-1.53,7.33-2.18s5-1,7.26.2c.93.5,2.41,1.71,1.89,2.89s-2.08.58-3,.35a25.71,25.71,0,0,0-6.81-1,40.53,40.53,0,0,0-7.11.72,37.73,37.73,0,0,0-6.9,1.58c-4.86,1.91,1.27,7.19,3.52,8.56V67.58a6.22,6.22,0,0,0-3.24,2.68c-.62,1.37.06,2.5.85,3.63a6,6,0,0,1,.94,5.46A4.17,4.17,0,0,1,115.87,82c-.78-.17-1.12,1-.33,1.2a5.49,5.49,0,0,0,6.52-4.94,7.48,7.48,0,0,0-1.38-5c-.69-1-1.34-1.91-.45-3a6.66,6.66,0,0,1,2.39-1.58.63.63,0,0,0,0-1.08,13.65,13.65,0,0,1-3-2.48,8.47,8.47,0,0,1-1.37-1.84c-.21-.41-.6-.74-.28-1.33a2.26,2.26,0,0,1,1.18-.74,46.63,46.63,0,0,1,8.21-1.73,28.29,28.29,0,0,1,9.09-.09c1.8.31,4.2,1.56,6,.67s1.28-3.11.16-4.34a7.57,7.57,0,0,0-5.54-2.21c-2.86,0-5.67,1-8.37,1.85s-5.68,1.51-8.39,2.55c-2.2.85-3.32,2.5-2.58,4.85.62,2,1.87,4.18,4.17,4.34a.63.63,0,0,0,.54-.94,4.51,4.51,0,0,0-3.72-2.39l.54.94c1.37-2,5.11-1.27,7.11-1.11A47.38,47.38,0,0,1,135,65.12L134.89,64a15.57,15.57,0,0,1-12.82,1.19c-1.28-.45-3.36-1.88-4.46-.29-.57.83.11,2.34,1.15,1.55a.63.63,0,0,0,.12-1l-.08-.07c-.58-.55-1.47.34-.88.88Z"/><path class="cls-1" d="M140.37,63a8.28,8.28,0,0,0,2.57.81,11.24,11.24,0,0,0,2.46,0c.64,0,1.55-.06,1.56.8s-.82,1.47-1.41,2h.88c-.68-.66-.39-1.73-.14-2.53.34-1,.75-2.1,1.15-3.13.69-1.76,1.59-3.61,3.35-4.5l-.85-.85L148,58.56c-.43.68.65,1.31,1.08.63l1.9-3.07c.34-.56-.33-1.13-.86-.86-2.12,1.07-3.17,3.29-4,5.4a27,27,0,0,0-1.27,3.6,3.19,3.19,0,0,0,.64,3.13.65.65,0,0,0,.88,0A4.26,4.26,0,0,0,148.16,65a2.06,2.06,0,0,0-1-2.3,5.37,5.37,0,0,0-2.73-.13,6.82,6.82,0,0,1-3.38-.71c-.72-.35-1.36.72-.63,1.08Z"/><path class="cls-1" d="M145.31,71.09a82.22,82.22,0,0,1-6.44,21.44c-.32.73.76,1.36,1.08.63a83.2,83.2,0,0,0,6.56-21.74c.11-.78-1.09-1.12-1.2-.33Z"/><path class="cls-1" d="M92.14,111.68c11.71,6,25.75,10,38.26,3.87l-.94-.54c.07,5.9-4.09,10.55-7.86,14.63-3.54,3.83-7.25,8-8.09,13.32-.06.41.28,1,.77.77l8.59-3.39a6.44,6.44,0,0,1,2.24-.71,4.23,4.23,0,0,1,2.17,1q1.88,1.28,3.65,2.7a59.53,59.53,0,0,1,5.93,5.4c2,2,4,4.69,3.56,7.7l1.14-.15c-3.78-6-1.6-13.6-2.54-20.23-.54-3.84-1.74-7.63-1.67-11.54a21.5,21.5,0,0,1,1.26-5.55,3.6,3.6,0,0,0-.85-3.5,12.89,12.89,0,0,0-4.48-2.8,37.07,37.07,0,0,0-5.79-2,.63.63,0,0,0-.61,1,42.35,42.35,0,0,0,13.3,9.24c4.89,2.13,10.14,3.16,15.09,5.1a27.73,27.73,0,0,1,7.28,4.17,34.83,34.83,0,0,0,6.8,4.71c2.45,1.15,5,2,7.54,2.95a63.44,63.44,0,0,1,7.83,3.79,138.69,138.69,0,0,1,16.08,11.14l.32-1.16-1.62-.2c-.79-.1-.79,1.15,0,1.25l1.62.2c.7.09.73-.84.31-1.16a153.49,153.49,0,0,0-14-9.91,68.71,68.71,0,0,0-7.63-4.05c-2.43-1.1-4.95-1.94-7.43-2.91a26.94,26.94,0,0,1-7.57-4.39,33.37,33.37,0,0,0-6.45-4.42c-4.7-2.31-9.87-3.37-14.79-5.11a41.24,41.24,0,0,1-15.81-10.13l-.61,1.05a33.65,33.65,0,0,1,6.88,2.55A10.12,10.12,0,0,1,136.5,116c1.15,1.07,1.12,2.11.6,3.52-1.56,4.2-.88,8.39,0,12.68a46.18,46.18,0,0,1,1,7c.09,2.07,0,4.14,0,6.22,0,4,.24,8.05,2.43,11.51.26.4,1.06.42,1.14-.15.4-2.85-.85-5.33-2.62-7.5a46.77,46.77,0,0,0-7.18-6.81Q130,141,128.1,139.71c-1.11-.76-2.17-1.53-3.59-1.26a29.47,29.47,0,0,0-5,1.87l-5.57,2.2.77.77c1.76-11.26,16.14-16.28,16-28.28a.63.63,0,0,0-.94-.54c-12.07,5.88-25.73,1.88-37-3.87-.72-.37-1.35.71-.63,1.08Z"/><path class="cls-1" d="M114.53,143c-1.76-.07-2.8,1.5-3.07,3.08-.42,2.4,1.33,5.6-1.59,7-2.09,1-4.66.52-6.86.33l-9.16-.8c-.64,0-.82.87-.31,1.17,3.11,1.85,6.7,2.1,10.23,2.37.89.07,1.78.14,2.67.25s3.2.19,2.18,1.59a8.27,8.27,0,0,1-2.39,1.64,15.11,15.11,0,0,0-2.11,1.44,5.09,5.09,0,0,0-2,3.79c0,1.76,1.33,3.13,1.69,4.8.9,4.15-2.59,7.34-4.81,10.32a15.92,15.92,0,0,0-2.38,5.66q-1,3.84-2.06,7.68a.62.62,0,0,0,1.2.33l1.87-7a17,17,0,0,1,2.45-6.07c2.27-3,5.22-5.87,5.1-10-.05-1.93-1.21-3.26-1.68-5-.64-2.44,1.75-3.94,3.54-5,1.12-.67,3.31-1.74,3.34-3.27s-1.83-1.89-3-2.06c-4.44-.64-9.24-.2-13.24-2.57l-.32,1.16,8.92.78c2.23.19,4.59.55,6.78-.11a4.36,4.36,0,0,0,3.3-3.55c.22-1.54-1.31-6.81,1.68-6.69.8,0,.8-1.22,0-1.25Z"/><path class="cls-1" d="M93.93,194.15c-.58,5.28-7,7.41-10.91,9.76a34.73,34.73,0,0,0-14.89,18.41c-1.08,3.14-1.58,6.44-2.49,9.63a32.27,32.27,0,0,1-8.49,14,46.8,46.8,0,0,1-15.76,10c-.74.3-.42,1.51.33,1.21,10.13-4,19.67-11.15,23.94-21.47a61.44,61.44,0,0,0,2.6-9.26,35.44,35.44,0,0,1,3.35-8.9,33.52,33.52,0,0,1,12.21-12.64c4.41-2.61,10.71-4.88,11.36-10.74.09-.8-1.16-.79-1.25,0Z"/><path class="cls-1" d="M84.25,204.72a53.6,53.6,0,0,1,50.1-3.6,54.22,54.22,0,0,1,12.23,7.59c.61.51,1.5-.37.88-.88a54.47,54.47,0,0,0-63.84-4.19c-.68.43-.05,1.51.63,1.08Z"/><path class="cls-1" d="M168,231.82a60.75,60.75,0,0,1,15.85,18.4c4,7.2,7.52,16.39,4.35,24.55-1.75,4.48-5.31,8-7.79,12a.63.63,0,0,0,1.08.63c2.3-3.76,5.46-7,7.35-11a21.17,21.17,0,0,0,1.48-12.35c-1.29-8.38-5.86-16.38-11.08-22.93a60.91,60.91,0,0,0-10.36-10.19c-.62-.49-1.52.39-.88.88Z"/><path class="cls-1" d="M293,171.18q-1.63-7.65-4-15.1a64.12,64.12,0,0,0-5.35-13,48.23,48.23,0,0,0-4.09-5.67,31.44,31.44,0,0,1-3.63-6.12,15,15,0,0,0-3.76-5.23c-1.69-1.44-3.66-2.53-5.33-4-3.1-2.75-5-6.66-8.49-9-3.87-2.56-9-2.74-13.47-3.38l-8-1.17c-1.21-.17-4.17-1.13-4.42.87-.2,1.56,1.89,2.68,3,3.33a30.51,30.51,0,0,0,5.58,2.38,63.47,63.47,0,0,1,6.72,2.46,22.08,22.08,0,0,1,6.15,4.73,55.23,55.23,0,0,0,5.88,5c1.93,1.46,4,3.24,6.61,2.91a.62.62,0,0,0,.17-1.22c-3-1.16-6.14-.81-9.24-1.2-3.36-.43-6.41-2.11-9.78-2.5a25.07,25.07,0,0,0-9.76,1.14c-2.63.74-5.9,1.4-8.07,3.18a6.92,6.92,0,0,0-2.36,6c.21,1.88,1.27,4.47,3.58,3.62,1.37-.5,2.64-1.35,4-2a28.38,28.38,0,0,1,5-1.8,23.19,23.19,0,0,1,10.32,0,69.85,69.85,0,0,1,10.46,3.32,36.76,36.76,0,0,0,4.8,1.74,3.07,3.07,0,0,0,3.16-.72.63.63,0,0,0-.44-1.06c-7.55-.91-15.11-1.93-22.68-2.72-4.86-.5-13.87-.51-13.83,6.5a.63.63,0,0,0,.62.63c3,.07,6-.11,8.93,0a65.92,65.92,0,0,1,9.07,1,68.94,68.94,0,0,1,16.85,5.42.64.64,0,0,0,.92-.71c-.57-2.12-3.81-1.23-5.35-1.26a38.58,38.58,0,0,1-8.72-1.45c-5.43-1.38-10.91-3.07-16.57-2.13-.69.11-.53,1.26.17,1.23a52,52,0,0,1,14.07,1.12,43.89,43.89,0,0,1,6.37,1.87A9.31,9.31,0,0,1,261,150c.76.68,1.29,1.56,2,2.3a8.41,8.41,0,0,0,3.68,2c1.33.43,3.14.77,3.9,2.09.55.94.31,2.11.43,3.15a4.38,4.38,0,0,0,.93,2.24,6.71,6.71,0,0,0,4,2.25c2.24.46,4.6.15,6.78.9,2,.68,4.26,3.33,2.06,5.17-.62.52.27,1.4.88.88a3.69,3.69,0,0,0,1-4.05,5.33,5.33,0,0,0-3.6-3.2c-2.19-.74-4.54-.45-6.77-.91a5.86,5.86,0,0,1-3-1.42c-1.06-1-1-2.2-1.09-3.57-.22-4-4.06-4-6.89-5.39-1.77-.88-2.59-2.82-4.18-4a20.94,20.94,0,0,0-6.58-2.64,53,53,0,0,0-16.91-1.79l.16,1.22c5.12-.85,10.17.65,15.09,1.93a59.12,59.12,0,0,0,7,1.47,26,26,0,0,0,3.52.23c.62,0,3.29-.54,3.52.35l.92-.71a70,70,0,0,0-17.15-5.55,69.15,69.15,0,0,0-8.72-1c-3.2-.18-6.4,0-9.61-.06l.63.62c0-3.35,3.27-5,6.19-5.38a39.1,39.1,0,0,1,9.23.46L268.18,140l-.44-1.07c-.85.95-2.31.32-3.31-.05-1.44-.52-2.86-1.08-4.3-1.62a75.15,75.15,0,0,0-8.06-2.64,25.29,25.29,0,0,0-15.76.68c-1.18.46-2.33,1-3.47,1.56-.61.31-1.21.65-1.82.95-1.08.54-1.76-.11-2.13-1.11a5.69,5.69,0,0,1,1.91-6.41c2.09-1.49,5.13-2.11,7.57-2.78a23,23,0,0,1,9.49-1c3.1.46,5.94,2,9.05,2.4s6.34,0,9.33,1.21l.17-1.23c-2.34.3-4.23-1.42-6-2.74a49.06,49.06,0,0,1-5.18-4.37,32,32,0,0,0-4.55-4.08,23.22,23.22,0,0,0-4.75-2.32c-3.59-1.35-7.44-2.18-10.66-4.32a6.65,6.65,0,0,1-1.2-.91c-.9-1,.75-.75,1.25-.68l3.63.53,7,1c4.29.63,9.19.87,12.67,3.76,2.91,2.43,4.7,5.9,7.59,8.34,1.55,1.31,3.32,2.32,4.88,3.61a14.29,14.29,0,0,1,3.71,5.11,30.31,30.31,0,0,0,3,5.37c1.33,1.77,2.8,3.43,4,5.31,2.66,4.18,4.31,8.92,5.82,13.62a158.52,158.52,0,0,1,4.08,15.32c.17.79,1.37.45,1.2-.33Z"/><path class="cls-1" d="M.44,242.56A55.53,55.53,0,0,1,17,250.81a56.38,56.38,0,0,0,7.5,5.07A22.33,22.33,0,0,0,33,258c6.74.51,13.57.41,20.33.59,1.64,0,7.59-.47,7,2.6-.24,1.35-1.78,2.48-2.71,3.39s-2.16,2.11-3.14,3.27c-3.27,3.84-5.6,10.2-1.31,14.28.49.47,1.41-.16,1-.75-2-2.69-4.33-6-4-9.51.33-3.28,3.15-5.29,5.82-6.74,6.12-3.34,12.71-6.53,19.55-8a102.25,102.25,0,0,1,11.59-1.47A93,93,0,0,0,97.47,254c1.68-.37,3.34-.78,5-1.25,2-.54,3.85-1.34,5.81-1.84.87-.21,1.64-.29,2.23.49a3.07,3.07,0,0,1,.5,1.91,5.12,5.12,0,0,1-2,3.53c-2.41,2-5.78,2.52-8.76,3.05l-13.12,2.36c-.71.13-.52,1.23.17,1.23a68.72,68.72,0,0,1,36.84,10.83c.95.61,1.9,1.25,2.82,1.92,1.27.9,2.87,1.82,2,3.59-1.08,2.09-3.66,2.95-5.88,2.93-2.88,0-5.62-1.22-8.35-2a59.52,59.52,0,0,0-18.44-2.17.63.63,0,0,0,0,1.25,65.51,65.51,0,0,1,24.92,7.1l.31-1.17-23-1.08c-.81,0-.81,1.21,0,1.25l23,1.08a.63.63,0,0,0,.32-1.16,67,67,0,0,0-25.55-7.27v1.25a58.48,58.48,0,0,1,19.23,2.45c4.4,1.34,10.51,3.39,14-1,1.44-1.82,1.31-3.67-.49-5.12a53.32,53.32,0,0,0-7.11-4.7,69.9,69.9,0,0,0-34.55-9.23l.16,1.23,13.13-2.36c3-.55,6.26-1.12,8.8-3,2-1.48,3.51-4,2.57-6.56-1.36-3.65-5.49-1.3-8-.53a87.86,87.86,0,0,1-12.32,2.8c-4.22.64-8.48.83-12.71,1.42-8.11,1.13-15.54,4.67-22.74,8.4-3,1.57-6.35,3.69-7.12,7.3-.86,4.08,1.72,7.95,4,11.09l1-.76c-2.07-2-2.34-5-1.54-7.64.84-2.83,2.92-5.09,5-7.13,1.53-1.53,4.46-3.51,4.14-6-.25-2-2.4-2.75-4.13-3a93.22,93.22,0,0,0-9.61-.31L37,256.94a32.91,32.91,0,0,1-9.59-1.2c-3-1-5.64-3-8.18-4.85A59.94,59.94,0,0,0,.77,241.35a.63.63,0,0,0-.33,1.21Z"/><path class="cls-1" d="M108.62,248.87h-.4a.6.6,0,0,0-.24,0,.54.54,0,0,0-.34.34.6.6,0,0,0,0,.24l0,.16a.71.71,0,0,0,.16.28l.13.1a.69.69,0,0,0,.32.08h.4a.47.47,0,0,0,.24-.05.46.46,0,0,0,.2-.13.49.49,0,0,0,.13-.2.53.53,0,0,0,.06-.24l0-.17a.61.61,0,0,0-.16-.28l-.12-.09a.62.62,0,0,0-.32-.09Z"/><path class="cls-1" d="M110.39,250.79l50.66-56.53c8-8.95,15.8-18.3,24.77-26.33,4.34-3.89,9.2-7.18,13.24-11.4s7.44-8.89,11.11-13.36a370.41,370.41,0,0,1,27.29-29.7c.57-.56-.31-1.45-.89-.88Q223.82,125,212.29,138.68c-3.77,4.47-7.32,9.13-11.1,13.6S193,160.34,188.46,164c-9.26,7.55-17,16.75-25,25.62l-25.33,28.26-28.66,32c-.54.6.34,1.49.88.89Z"/><path class="cls-1" d="M240.63,108.13l.2.31,0-.11s.07-.13.11-.17a6.5,6.5,0,0,1,.53-.52l1.33-1.26,2.57-2.47L250.54,99c.58-.56-.3-1.45-.88-.89l-6.32,6.06c-1,1-2.07,2-3.09,3-.56.55-1.15,2,.05,2.23.79.16,1.12-1,.33-1.21Z"/><path class="cls-1" d="M248.14,96.12a265.53,265.53,0,0,1,23.65,15.63l.63-1.08A81.65,81.65,0,0,1,249.14,94l-.44,1.07a5.94,5.94,0,0,0,5.15-2.25,5.65,5.65,0,0,0,1.1-2.22c.28-1.27-.12-2.69.44-3.89a15.13,15.13,0,0,1,2.7-3.18l3.37-3.69,6.06-6.64c3.9-4.27,7.72-8.63,11.76-12.77a67.17,67.17,0,0,1,5.81-5.38q1.59-1.29,3.3-2.43c1.08-.7,2.72-2,4.07-2s2.91,1.53,4.11,2.14a23.63,23.63,0,0,0,12.52,2.59l-.63-.62a11.14,11.14,0,0,0,7.18,11.07l-.15-1.15A78.49,78.49,0,0,0,296.09,82a81.92,81.92,0,0,0-7.16,10.65c-2.1,3.66-4.27,7.66-8.11,9.78-4.45,2.46-9.87,2-14.59,3.71-.76.27-.43,1.48.33,1.21,4.24-1.52,8.88-1.37,13.08-3,3.86-1.5,6.46-4.56,8.58-8,2.27-3.68,4.29-7.45,6.85-11a76.81,76.81,0,0,1,21.05-19.6.63.63,0,0,0-.15-1.14,9.87,9.87,0,0,1-6.26-9.86.62.62,0,0,0-.62-.63,23,23,0,0,1-8.28-1,21.69,21.69,0,0,1-3.61-1.47c-1.14-.59-2.17-1.42-3.34-2-2.24-1-4.48.75-6.28,1.94a49.34,49.34,0,0,0-5.8,4.59c-4.09,3.73-7.72,7.93-11.44,12L257.88,81.94a45,45,0,0,0-3.13,3.49,5.26,5.26,0,0,0-.9,3.32,4.91,4.91,0,0,1-1.33,3.72,4.73,4.73,0,0,1-3.82,1.38.63.63,0,0,0-.44,1.07,82.77,82.77,0,0,0,23.53,16.83.63.63,0,0,0,.63-1.08,263.25,263.25,0,0,0-23.65-15.62.62.62,0,0,0-.63,1.07Z"/><path class="cls-1" d="M265.67,109.8a13.38,13.38,0,0,0-6.28,5.1c-.45.68.64,1.31,1.08.64A11.85,11.85,0,0,1,266,111a.65.65,0,0,0,.44-.77.64.64,0,0,0-.77-.44Z"/><path class="cls-1" d="M129.13,274.49c9.44-12.82,18.89-25.66,29.49-37.55,5.28-5.92,10.89-11.48,16.71-16.87a131.8,131.8,0,0,0,16.16-17.16c5.67-7.5,10.93-15.32,16.35-23,.46-.66-.62-1.29-1.08-.63-4.84,6.85-9.61,13.77-14.54,20.56A123.86,123.86,0,0,1,176,217.77c-5.82,5.4-11.52,10.86-16.86,16.75s-10.33,12-15.19,18.2c-5.42,7-10.65,14-15.87,21.14-.48.65.6,1.27,1.07.63Z"/></g></g></svg>